<svg width="597" height="258" viewBox="0 0 597 258" fill="none" xmlns="http://www.w3.org/2000/svg">
<path d="M87.0979 220.322C93.5842 213.864 100.426 207.759 107.267 201.653C114.366 195.291 121.498 188.93 128.275 182.248C137.246 173.393 145.378 163.899 152.477 153.477C159.771 142.768 165.773 131.388 170.129 119.208C173.13 110.8 175.293 102.169 176.551 93.3459C177.584 85.9614 178.132 78.5768 177.906 71.1283C177.487 57.1584 175.067 43.5081 170.646 30.2415C170.42 29.6022 170.226 28.9628 169.968 28.3234C166.87 19.2766 162.965 10.5494 158.06 2.30168C157.576 1.47052 157.157 0.639356 156.511 0C155.963 0.0959033 156.06 0.479517 156.092 0.703291C156.189 1.66232 156.35 2.62136 156.414 3.54842C156.834 8.31162 157.189 13.0748 157.189 17.87C157.189 18.3175 157.189 18.7331 157.189 19.1807C156.931 39.0007 151.283 57.0944 139.795 73.398C134.374 81.0703 128.178 88.1032 121.595 94.7845C113.915 102.553 105.815 109.937 97.7148 117.29C86.872 127.136 76.126 137.046 65.9931 147.595C43.2103 171.187 -5.84051 215.303 7.90663 251.49L62.4434 252.002C64.6701 247.814 67.1871 243.818 69.9301 239.982C75.0611 232.885 80.8697 226.46 87.0979 220.29V220.322Z" fill="#F0B434"/>
<path d="M141.28 211.787C150.671 200.886 159.513 189.537 167.451 177.517C175.196 165.785 182.037 153.637 187.459 140.69C191.525 131.036 194.687 121.126 196.753 110.832C198.56 101.69 199.334 92.4828 198.883 83.1802C198.076 67.1004 193.752 52.0755 185.135 38.3294C182.618 34.3334 179.779 30.5612 176.519 27.1087C176.035 26.5972 175.487 26.1177 174.97 25.6382C174.389 25.9898 174.648 26.3415 174.777 26.6612C175.68 29.0587 176.616 31.4563 177.455 33.8859C180.488 42.7729 182.522 51.8518 183.554 61.1544C184.458 69.0824 184.587 77.0424 183.974 84.9384C182.715 101.434 178.326 117.162 171.388 132.219C166.128 143.695 159.513 154.372 151.994 164.57C144.991 174.065 136.988 182.6 128.34 190.592C120.53 197.817 112.624 204.945 104.815 212.17C97.9734 218.468 91.3257 224.989 85.1298 231.958C79.5471 238.256 74.4161 244.873 70.0273 252.066L111.398 252.45C115.109 246.28 119.11 240.302 123.306 234.452C128.953 226.62 134.987 219.043 141.312 211.755L141.28 211.787Z" fill="#71305B"/>
<path d="M192.331 206.799C193.461 196.154 193.622 185.509 193.364 174.864C193.138 166.041 192.493 157.249 191.46 148.49C191.428 148.203 191.299 147.947 191.266 147.723C190.653 147.531 190.556 148.011 190.427 148.298C189.782 149.769 189.169 151.271 188.523 152.774C182.586 166.488 174.841 179.179 166.031 191.231C159.609 199.99 152.703 208.334 145.797 216.709C140.118 223.583 134.438 230.52 129.275 237.808C125.919 242.571 122.789 247.462 120.11 252.609L178.713 253.185C183.941 244.969 187.039 235.89 189.233 226.428C190.718 219.97 191.654 213.417 192.331 206.831V206.799Z" fill="#F0B434"/>
<path d="M132.792 70.329C139.666 60.2272 144.893 49.422 148.153 37.6259C148.605 35.9956 148.992 34.3652 149.315 32.7349C150.315 27.2684 150.863 21.674 150.928 15.8878C150.928 15.4723 150.928 15.0247 150.928 14.6091C150.928 14.5452 150.928 14.4813 150.928 14.4173C150.896 14.2255 150.863 13.9698 150.799 13.5542C150.541 14.0977 150.412 14.3214 150.315 14.5772C147.475 23.4962 142.893 31.4562 137.342 38.9686C132.663 45.2982 127.403 51.1803 121.82 56.7746C113.172 65.4379 103.975 73.4298 94.5841 81.23C84.6449 89.5096 74.6088 97.6934 64.6696 105.973C31.0762 133.721 9.64874 158.081 3.71101 175.183C-1.3877 189.185 -0.45186 203.475 2.00068 217.892C1.8716 217.189 2.12976 218.915 2.48474 221.057C9.93917 191.551 43.2421 161.054 60.7971 142.896C70.8332 132.474 81.4824 122.66 92.1961 112.942C100.199 105.653 108.202 98.3647 115.818 90.6924C119.303 87.144 122.692 83.4997 125.886 79.7275C126.241 79.2799 126.596 78.8004 126.919 78.3849C128.984 75.7635 130.985 73.0782 132.857 70.329H132.792Z" fill="#F0B434"/>
<path d="M244.509 82.9024L244.096 125.661L233.319 125.558L233.732 82.7993L244.509 82.9024Z" fill="#71305B"/>
<path d="M280.491 105.295L280.284 126.005L270.678 125.901L270.85 108.249C270.885 103.646 269.301 102.067 266.099 102.032C262.45 101.998 260.315 103.818 260.281 108.077L260.109 125.764L250.503 125.661L250.813 95.0259L260.418 95.129V99.5594H260.487C262.14 96.7775 265.17 94.236 270.609 94.2704C276.531 94.3391 280.525 98.2543 280.456 105.261L280.491 105.295Z" fill="#71305B"/>
<path d="M297.74 102.718L297.602 115.391C297.602 118.86 298.842 118.86 302.904 118.928L302.836 126.106C301.08 126.45 299.599 126.725 296.879 126.69C289.856 126.622 287.928 122.912 287.997 116.009L288.134 102.615H283.865L283.934 95.4026H288.203L288.272 86.8853L297.878 86.9883L297.809 95.54L303.145 95.6087L303.077 102.787L297.74 102.718Z" fill="#71305B"/>
<path d="M327.654 117.177L337.19 117.281C335.469 123.428 330.615 127.446 322.283 127.378C312.092 127.275 305.963 120.509 306.067 110.961C306.17 101.62 312.264 94.7506 322.042 94.8537C332.543 94.9567 337.81 102.65 337.672 113.777L315.604 113.571C315.569 117.864 318.702 120.165 322.145 120.2C325.588 120.234 327 118.689 327.619 117.212L327.654 117.177ZM315.672 107.733L328.136 107.87C328.17 103.611 325.622 101.448 321.973 101.413C318.323 101.379 315.707 103.508 315.672 107.767V107.733Z" fill="#71305B"/>
<path d="M362.224 95.884L362.155 104.264H362.052C357.128 103.302 351.895 105.947 351.826 112.472L351.689 126.691L342.083 126.588L342.393 95.9527L351.999 96.0557V101.07H352.067C353.617 97.6699 356.268 95.5405 359.607 95.5749C360.434 95.5749 361.157 95.5749 362.224 95.8496V95.884Z" fill="#71305B"/>
<path d="M396.169 106.427L395.963 127.137L386.357 127.034L386.529 109.381C386.564 104.778 384.98 103.199 381.778 103.164C378.128 103.13 375.994 104.95 375.959 109.209L375.787 126.896L366.182 126.793L366.492 96.158L376.097 96.2611V100.691H376.166C377.819 97.9096 380.848 95.3681 386.288 95.4024C392.21 95.4711 396.204 99.3864 396.135 106.393L396.169 106.427Z" fill="#71305B"/>
<path d="M416.068 102.305C412.59 102.305 410.903 103.576 410.559 106.495L401.573 106.392C401.917 100.52 406.186 95.6083 416.205 95.7113C424.847 95.78 429.598 99.1801 429.495 108.831L429.357 122.878C429.357 124.492 429.942 125.144 431.147 125.179V127.445C429.185 128.132 427.463 128.373 425.535 128.338C421.232 128.304 420.027 126.243 420.061 124.114H419.924C417.927 126.381 414.312 128.235 410.249 128.201C403.776 128.132 400.196 124.457 400.265 119.306C400.334 113.193 404.844 110.445 412.039 109.071C415.999 108.35 419.924 107.766 419.924 105.19C419.924 103.404 418.684 102.305 416.068 102.271V102.305ZM419.855 116.181V112.471C418.684 112.952 417.169 113.33 414.966 113.811C411.179 114.601 409.905 116.146 409.87 118.069C409.87 120.577 411.351 121.676 413.657 121.71C417.789 121.744 419.786 119.134 419.82 116.215L419.855 116.181Z" fill="#71305B"/>
<path d="M447.782 104.161L447.644 116.834C447.644 120.303 448.884 120.303 452.946 120.372L452.878 127.55C451.122 127.893 449.641 128.168 446.921 128.133C439.898 128.065 437.97 124.356 438.039 117.452L438.176 104.058H433.907L433.976 96.8457H438.245L438.314 88.3284L447.92 88.4314L447.851 96.9831L453.187 97.0518L453.119 104.23L447.782 104.161Z" fill="#71305B"/>
<path d="M458.006 89.1862C458.006 86.4387 460.14 84.9618 462.86 84.9962C465.58 85.0305 467.646 86.5417 467.611 89.2892C467.577 92.0368 465.477 93.5136 462.791 93.4792C460.106 93.4449 458.006 92.0024 458.04 89.1862H458.006ZM467.542 97.1884L467.233 127.824L457.627 127.72L457.937 97.0854L467.542 97.1884Z" fill="#71305B"/>
<path d="M488.167 128.957C477.907 128.854 471.814 122.054 471.882 112.54C471.986 103.027 478.217 96.3298 488.477 96.4328C498.737 96.5358 504.796 103.336 504.693 112.849C504.59 122.363 498.358 129.06 488.167 128.957ZM488.236 121.779C492.436 121.813 495.053 118.688 495.088 112.746C495.122 106.805 492.609 103.645 488.408 103.576C484.208 103.508 481.557 106.667 481.488 112.609C481.419 118.551 483.967 121.71 488.236 121.779Z" fill="#71305B"/>
<path d="M538.982 107.801L538.775 128.51L529.169 128.407L529.342 110.754C529.376 106.152 527.792 104.572 524.59 104.538C520.941 104.504 518.806 106.324 518.772 110.583L518.6 128.27L508.994 128.167L509.304 97.5318L518.91 97.6348V102.065H518.979C520.631 99.2833 523.661 96.7419 529.101 96.7762C535.022 96.8449 539.016 100.76 538.947 107.766L538.982 107.801Z" fill="#71305B"/>
<path d="M558.88 103.681C555.403 103.681 553.716 104.952 553.371 107.871L544.385 107.768C544.73 101.895 548.999 96.9838 559.018 97.0868C567.659 97.1555 572.411 100.556 572.307 110.206L572.17 124.253C572.17 125.867 572.755 126.52 573.96 126.554V128.821C571.997 129.508 570.276 129.748 568.348 129.714C564.044 129.68 562.839 127.619 562.874 125.49H562.736C560.739 127.756 557.124 129.611 553.062 129.577C546.589 129.508 543.008 125.833 543.077 120.681C543.146 114.568 547.656 111.82 554.852 110.447C558.811 109.725 562.736 109.142 562.736 106.566C562.736 104.78 561.497 103.681 558.88 103.647V103.681ZM562.633 117.556V113.847C561.462 114.328 559.947 114.705 557.744 115.186C553.957 115.976 552.683 117.522 552.648 119.445C552.648 121.952 554.129 123.051 556.436 123.085C560.567 123.12 562.564 120.51 562.598 117.59L562.633 117.556Z" fill="#71305B"/>
<path d="M588.834 86.2324L588.421 128.991L578.815 128.888L579.229 86.1294L588.834 86.2324Z" fill="#71305B"/>
<path d="M243.929 142.728L243.515 185.487L232.739 185.384L233.152 142.625L243.929 142.728Z" fill="#71305B"/>
<path d="M279.907 165.123L279.7 185.832L270.094 185.729L270.266 168.076C270.301 163.474 268.717 161.894 265.515 161.86C261.866 161.826 259.731 163.646 259.697 167.905L259.525 185.592L249.919 185.489L250.229 154.854L259.834 154.957V159.387H259.903C261.556 156.605 264.586 154.064 270.025 154.098C275.947 154.167 279.941 158.082 279.872 165.088L279.907 165.123Z" fill="#71305B"/>
<path d="M312.51 177.108C312.441 183.565 307.483 187.034 298.979 186.965C287.996 186.862 283.865 181.916 283.624 175.7L292.61 175.803C292.885 178.86 294.917 180.371 298.669 180.405C301.355 180.405 302.87 179.547 302.904 177.829C302.904 175.185 300.047 174.807 295.192 173.674C289.993 172.472 284.244 170.514 284.313 164.126C284.381 158.562 289.201 154.372 297.843 154.441C307.69 154.544 311.477 159.524 311.718 164.916L302.732 164.813C302.457 162.375 301.148 161.035 298.015 161.001C295.33 161.001 293.918 161.928 293.918 163.405C293.918 165.569 295.812 165.637 300.529 166.702C306.588 168.076 312.544 170.171 312.475 177.108H312.51Z" fill="#71305B"/>
<path d="M328.28 162.855L328.142 175.528C328.142 178.997 329.382 178.997 333.444 179.066L333.376 186.244C331.62 186.587 330.139 186.862 327.419 186.828C320.396 186.759 318.468 183.05 318.537 176.146L318.674 162.752H314.405L314.474 155.54H318.743L318.812 147.022L328.418 147.126L328.349 155.677L333.685 155.746L333.617 162.924L328.28 162.855Z" fill="#71305B"/>
<path d="M338.507 147.881C338.507 145.133 340.641 143.657 343.361 143.691C346.081 143.725 348.147 145.237 348.112 147.984C348.078 150.732 345.978 152.208 343.292 152.174C340.607 152.14 338.507 150.697 338.541 147.881H338.507ZM348.043 155.849L347.734 186.484L338.128 186.381L338.438 155.746L348.043 155.849Z" fill="#71305B"/>
<path d="M366.014 163.2L365.876 175.873C365.876 179.342 367.115 179.342 371.178 179.411L371.109 186.589C369.353 186.932 367.873 187.207 365.153 187.172C358.129 187.104 356.201 183.395 356.27 176.491L356.408 163.097H352.139L352.208 155.885H356.477L356.546 147.367L366.151 147.47L366.082 156.022L371.419 156.091L371.35 163.269L366.014 163.2Z" fill="#71305B"/>
<path d="M405.641 156.432L405.331 187.068L395.725 186.964V182.534H395.656C394.004 185.316 390.974 187.857 385.534 187.823C379.612 187.754 375.619 183.839 375.687 176.833L375.894 156.123L385.5 156.226L385.328 173.879C385.293 178.481 386.877 180.061 390.079 180.096C393.728 180.13 395.863 178.31 395.897 174.051L396.069 156.364L405.675 156.467L405.641 156.432Z" fill="#71305B"/>
<path d="M423.643 163.782L423.506 176.455C423.506 179.924 424.745 179.924 428.808 179.993L428.739 187.171C426.983 187.514 425.503 187.789 422.783 187.755C415.759 187.686 413.831 183.977 413.9 177.074L414.038 163.679H409.769L409.837 156.467H414.107L414.175 147.95L423.781 148.053L423.712 156.604L429.049 156.673L428.98 163.851L423.643 163.782Z" fill="#71305B"/>
<path d="M453.564 178.242L463.101 178.345C461.379 184.493 456.525 188.511 448.193 188.442C438.002 188.339 431.874 181.573 431.977 172.026C432.08 162.684 438.174 155.815 447.952 155.918C458.453 156.021 463.72 163.714 463.583 174.842L441.514 174.636C441.479 178.929 444.612 181.23 448.055 181.264C451.36 181.264 452.91 179.753 453.529 178.276L453.564 178.242ZM441.583 168.797L454.046 168.935C454.08 164.676 451.532 162.512 447.883 162.478C444.234 162.444 441.617 164.573 441.583 168.832V168.797Z" fill="#71305B"/>
<path d="M494.397 188.854C484.137 188.751 478.043 181.951 478.112 172.438C478.181 162.924 484.447 156.227 494.707 156.33C504.966 156.433 511.026 163.233 510.923 172.747C510.819 182.26 504.588 188.957 494.397 188.854ZM494.466 181.676C498.666 181.71 501.283 178.585 501.317 172.644C501.351 166.702 498.838 163.542 494.638 163.474C490.437 163.405 487.786 166.565 487.718 172.506C487.649 178.448 490.196 181.607 494.466 181.676Z" fill="#71305B"/>
<path d="M527.482 156.296V157.601L532.818 157.67L532.749 164.848L527.413 164.779L527.172 188.236L517.566 188.133L517.807 164.676H513.263L513.332 157.464H517.876V155.403C517.945 148.534 519.942 144.825 526.965 144.894C529.651 144.894 531.166 145.168 532.887 145.546L532.818 152.724C528.756 152.69 527.482 152.655 527.447 156.261L527.482 156.296Z" fill="#71305B"/>
<path d="M232.497 202.42L243.273 202.523L258.009 228.075H258.146L258.387 202.66L269.164 202.763L268.751 245.522L257.974 245.419L243.239 219.867H243.135L242.894 245.282L232.118 245.179L232.531 202.42H232.497Z" fill="#71305B"/>
<path d="M296.19 236.558L305.727 236.661C304.005 242.809 299.151 246.827 290.819 246.758C280.628 246.655 274.5 239.889 274.603 230.342C274.706 221 280.8 214.131 290.578 214.234C301.079 214.337 306.346 222.03 306.209 233.158L284.14 232.952C284.105 237.245 287.238 239.546 290.681 239.58C293.986 239.58 295.536 238.069 296.155 236.592L296.19 236.558ZM284.243 227.079L296.706 227.216C296.741 222.958 294.193 220.794 290.543 220.76C286.894 220.725 284.277 222.855 284.243 227.113V227.079Z" fill="#71305B"/>
<path d="M317.154 215.402L321.595 234.12H321.733L326.966 215.505L335.367 215.574L340.221 234.291H340.325L345.11 215.677L354.716 215.78L345.833 246.312L336.847 246.209L331.098 226.77H330.994L324.866 246.071L315.88 245.968L307.617 215.265L317.223 215.368L317.154 215.402Z" fill="#71305B"/>
<path d="M399.649 220.451L399.581 229.243L380.886 229.071L380.817 237.864L402.886 238.07L402.817 246.862L369.972 246.553L370.385 203.794L402.886 204.103L402.817 212.895L381.127 212.689L381.058 220.279L399.753 220.451H399.649Z" fill="#71305B"/>
<path d="M438.069 226.495L437.862 247.204L428.256 247.101L428.429 229.448C428.463 224.846 426.879 223.266 423.677 223.232C420.028 223.198 417.893 225.018 417.859 229.277L417.687 246.964L408.081 246.861L408.391 216.226L417.997 216.329V220.759H418.065C419.718 217.977 422.748 215.436 428.188 215.47C434.109 215.539 438.103 219.454 438.034 226.461L438.069 226.495Z" fill="#71305B"/>
<path d="M473.431 216.913L473.156 244.56C473.052 254.658 467.199 258.092 457.904 257.989C448.195 257.886 443.753 252.837 442.72 247.926L452.326 248.029C452.911 249.712 454.392 251.086 457.766 251.12C462.069 251.154 463.55 248.888 463.584 243.839V242.053H463.481C462.276 243.667 459.556 246.037 455.046 245.968C447.196 245.9 442.204 239.615 442.307 230.788C442.376 221.927 447.506 215.78 455.356 215.848C459.866 215.883 462.517 218.321 463.722 219.935H463.825V216.879L473.431 216.982V216.913ZM463.515 230.926C463.55 225.946 461.691 223.026 457.766 222.992C453.875 222.958 451.913 225.877 451.878 230.823C451.844 235.803 453.703 238.722 457.628 238.756C461.519 238.79 463.481 235.871 463.515 230.926Z" fill="#71305B"/>
<path d="M490.302 204.927L489.889 247.685L480.283 247.582L480.696 204.823L490.302 204.927Z" fill="#71305B"/>
<path d="M510.266 222.888C506.788 222.888 505.101 224.159 504.757 227.078L495.771 226.975C496.115 221.102 500.385 216.191 510.403 216.294C519.045 216.363 523.796 219.763 523.693 229.414L523.555 243.46C523.555 245.075 524.141 245.727 525.346 245.761V248.028C523.383 248.715 521.662 248.956 519.734 248.921C515.43 248.887 514.225 246.826 514.26 244.697H514.122C512.125 246.964 508.51 248.818 504.447 248.784C497.975 248.715 494.394 245.04 494.463 239.889C494.532 233.775 499.042 231.028 506.238 229.654C510.197 228.933 514.122 228.349 514.122 225.773C514.122 223.987 512.882 222.888 510.266 222.854V222.888ZM514.019 236.729V233.02C512.848 233.501 511.333 233.878 509.13 234.359C505.342 235.149 504.069 236.695 504.034 238.618C504.034 241.125 505.515 242.224 507.821 242.258C511.953 242.293 513.95 239.683 513.984 236.763L514.019 236.729Z" fill="#71305B"/>
<path d="M560.119 227.663L559.913 248.373L550.307 248.27L550.479 230.617C550.514 226.015 548.93 224.435 545.728 224.401C542.079 224.366 539.944 226.186 539.91 230.445L539.737 248.132L530.132 248.029L530.442 217.394L540.047 217.497V221.928H540.116C541.769 219.146 544.799 216.604 550.238 216.639C556.16 216.707 560.154 220.623 560.085 227.629L560.119 227.663Z" fill="#71305B"/>
<path d="M596.549 205.958L596.135 248.717L586.53 248.614V245.557H586.426C585.221 247.171 581.951 249.507 577.509 249.472C569.35 249.404 564.185 243.119 564.289 233.09C564.392 223.027 569.66 216.879 577.819 216.948C582.261 216.983 585.462 219.421 586.667 221.035H586.771L586.908 205.855L596.514 205.958H596.549ZM586.53 233.296C586.599 227.32 584.223 224.195 580.333 224.16C576.442 224.126 573.998 227.217 573.963 233.193C573.929 239.169 576.27 242.294 580.16 242.329C584.051 242.363 586.495 239.272 586.53 233.296Z" fill="#71305B"/>
</svg>
